#!OML:ASF H:\Terrain\Walking\May29\JustinRory\rory.ASF
:FULLY-SPECIFIED
:DEGREES
463
root 7.94749 15.8339 -7.19952 -2.48306 46.951 -6.44752
lowerback 32.3619 0.767246 6.78139
upperback 9.88462 3.78904 2.47785
thorax -6.11464 2.03345 -2.50493
lowerneck -11.1551 -18.3132 -12.4056
upperneck -23.0042 -19.9483 33.7142
head 0.543666 -10.3537 11.0895
rclavicle 5.32743e-014 -5.725e-014
rhumerus 118.824 -51.1434 -132.841
rradius 9.08234
rwrist 58.372
rhand -21.5693 17.6465
rfingers 7.12502
rthumb 4.82461 -12.2785
lclavicle 5.32743e-014 -5.725e-014
lhumerus -19.5703 0.574741 63.2025
lradius 26.5081
lwrist -1.23653
lhand -22.8094 24.0478
lfingers 7.12502
lthumb 3.62715 53.9967
rfemur -30.6333 2.86091 -5.89203
rtibia 28.0731
rfoot 7.09794 -33.1246
rtoes 26.0408
lfemur -52.474 0.944782 -13.3611
ltibia 69.0052
lfoot -14.5897 -10.6406
ltoes -5.63517
464
root 7.96527 15.8735 -7.1358 -1.8436 47.2878 -5.77726
lowerback 32.2677 0.843164 6.27936
upperback 9.83702 3.70632 2.29979
thorax -6.15734 1.99041 -2.38797
lowerneck -10.8729 -18.3048 -12.1162
upperneck -23.0461 -19.9724 33.6792
head 0.451627 -10.4131 11.0595
rclavicle -3.18055e-015 -3.18055e-014
rhumerus 118.316 -51.8413 -132.728
rradius 9.23459
rwrist 58.9575
rhand -21.6303 17.2902
rfingers 7.12502
rthumb 4.76575 -12.6362
lclavicle -3.18055e-015 -3.18055e-014
lhumerus -20.3715 2.87034 61.52
lradius 25.2995
lwrist -1.39282
lhand -22.6117 24.2012
lfingers 7.12502
lthumb 3.81806 54.1468
rfemur -30.5941 2.5067 -6.31798
rtibia 28.3924
rfoot 6.84898 -32.7765
rtoes 26.6044
lfemur -52.1549 0.478418 -13.7267
ltibia 68.6055
lfoot -14.6499 -10.5528
ltoes -3.70693
465
root 7.98709 15.9185 -7.07881 -1.38383 47.5178 -5.27959
lowerback 32.255 0.936078 5.94938
upperback 9.76332 3.71575 2.23255
thorax -6.2547 1.98811 -2.28079
lowerneck -10.3996 -18.4133 -12.4343
upperneck -23.0448 -20.1361 34.1037
head 0.52739 -10.5314 11.2375
rclavicle 1.1291e-013 2.3059e-014
rhumerus 117.937 -52.5797 -132.306
rradius 8.9641
rwrist 59.4515
rhand -22.115 17.19
rfingers 7.12502
rthumb 4.29771 -12.7464
lclavicle 1.1291e-013 2.3059e-014
lhumerus -21.323 4.95171 60.0099
lradius 24.2466
lwrist -1.37937
lhand -23.1747 23.1825
lfingers 7.12502
lthumb 3.27438 53.1371
rfemur -30.5825 2.09434 -6.55351
rtibia 28.7861
rfoot 8.22584 -31.8134
rtoes 23.5957
lfemur -51.8216 -0.174111 -13.9199
ltibia 68.3038
lfoot -14.7388 -10.1123
ltoes -1.72842
466
root 8.00514 15.9515 -7.01272 -1.41206 47.5763 -5.4083
lowerback 32.197 0.993135 5.85324
upperback 9.72505 3.75858 2.28618
thorax -6.28052 2.0048 -2.17982
lowerneck -9.76089 -18.4402 -12.6844
upperneck -23.1498 -20.1859 34.4672
head 0.505339 -10.6195 11.4356
rclavicle -6.04305e-014 -7.07673e-014
rhumerus 117.285 -53.1539 -131.75
rradius 8.82558
rwrist 59.81
rhand -22.6283 16.8545
rfingers 7.12502
rthumb 3.80208 -13.0914
lclavicle -6.04305e-014 -7.07673e-014
lhumerus -22.4455 6.50317 58.4934
lradius 23.5163
lwrist -0.947916
lhand -24.2618 22.5779
lfingers 7.12502
lthumb 2.22456 52.546
rfemur -30.6489 1.9012 -6.30202
rtibia 29.2377
rfoot 9.77487 -30.5859
rtoes 19.4796
lfemur -51.5583 -0.667059 -13.6182
ltibia 68.1703
lfoot -14.9765 -9.45829
ltoes -2.23828
467
root 8.02371 15.9587 -6.92964 -1.93276 47.585 -6.11754
lowerback 32.0854 1.02539 6.12078
upperback 9.71005 3.88972 2.46542
thorax -6.23196 2.06748 -2.17305
lowerneck -9.21125 -18.5071 -12.9267
upperneck -23.0613 -20.3553 34.5169
head 0.519444 -10.7356 11.4891
rclavicle -7.07673e-014 2.22639e-014
rhumerus 116.592 -53.719 -131.062
rradius 8.70852
rwrist 60.5892
rhand -22.9399 16.5633
rfingers 7.12502
rthumb 3.5011 -13.3877
lclavicle -7.07673e-014 2.22639e-014
lhumerus -23.4121 8.65903 56.8902
lradius 22.6265
lwrist -1.39955
lhand -24.3392 24.0505
lfingers 7.12502
lthumb 2.14973 54.0194
rfemur -30.6569 1.9327 -5.63184
rtibia 29.7429
rfoot 9.8482 -29.9344
rtoes 18.001
lfemur -51.3659 -0.928669 -12.9197
ltibia 68.2678
lfoot -15.4932 -8.71322
ltoes -6.05518
468
root 8.0449 15.9648 -6.85069 -2.21304 47.712 -6.51475
lowerback 31.9735 1.04525 6.39965
upperback 9.65401 3.99983 2.54595
thorax -6.22227 2.11897 -2.27684
lowerneck -8.80989 -18.6814 -13.3625
upperneck -22.684 -20.7236 34.6686
head 0.724413 -10.9098 11.5229
rclavicle -2.22639e-014 1.19271e-014
rhumerus 116.018 -54.3532 -130.353
rradius 8.59355
rwrist 61.691
rhand -22.6129 16.7502
rfingers 7.12502
rthumb 3.81688 -13.1954
lclavicle -2.22639e-014 1.19271e-014
lhumerus -24.1768 11.7614 54.9958
lradius 21.4151
lwrist -2.98954
lhand -23.6615 25.4081
lfingers 7.12502
lthumb 2.80429 55.3694
rfemur -30.6361 1.63573 -5.145
rtibia 30.2812
rfoot 9.6858 -29.3157
rtoes 16.9287
lfemur -51.2328 -1.52174 -12.4111
ltibia 68.4938
lfoot -16.1423 -7.83284
ltoes -9.49886
469
root 8.06455 15.9859 -6.77476 -2.32308 47.772 -6.62254
lowerback 31.9049 1.05167 6.35766
upperback 9.63669 3.9848 2.49739
thorax -6.21131 2.11195 -2.2997
lowerneck -8.64702 -18.6527 -13.3396
upperneck -22.2188 -20.8132 34.6826
head 0.850711 -10.9456 11.4895
rclavicle 7.95139e-015 1.03368e-014
rhumerus 115.125 -54.7259 -129.689
rradius 8.63549
rwrist 62.9114
rhand -22.1435 16.9828
rfingers 7.12502
rthumb 4.27022 -12.9541
lclavicle 7.95139e-015 1.03368e-014
lhumerus -25.2289 14.8018 52.6958
lradius 20.4475
lwrist -4.72979
lhand -23.751 25.2324
lfingers 7.12502
lthumb 2.71781 55.1948
rfemur -30.6203 1.19962 -4.76453
rtibia 30.8114
rfoot 9.27277 -28.8463
rtoes 17.0527
lfemur -50.9849 -2.28248 -12.0613
ltibia 68.7414
lfoot -16.6345 -6.83269
ltoes -10.5128
470
root 8.08438 16.0123 -6.68879 -2.91827 47.7112 -7.15931
lowerback 31.9319 1.01873 6.44217
upperback 9.69446 3.97388 2.52084
thorax -6.15359 2.11153 -2.31686
lowerneck -8.46366 -18.5227 -13.0859
upperneck -21.8495 -20.7445 34.6169
head 0.868971 -10.9233 11.4452
rclavicle -5.84427e-014 0
rhumerus 113.955 -54.8991 -128.954
rradius 8.7253
rwrist 64.163
rhand -22.1226 16.8771
rfingers 7.12502
rthumb 4.2904 -13.0595
lclavicle -5.84427e-014 0
lhumerus -26.4716 16.8754 50.5093
lradius 19.9131
lwrist -5.80478
lhand -24.2787 26.3579
lfingers 7.12502
lthumb 2.20817 56.3262
rfemur -30.4382 0.837001 -3.96167
rtibia 31.2713
rfoot 8.74583 -28.4029
rtoes 17.092
lfemur -50.5194 -2.92326 -11.4037
ltibia 69.0218
lfoot -16.8909 -5.82187
ltoes -11.5084
471
root 8.10182 16.0427 -6.59432 -3.53336 47.6546 -7.66121
lowerback 32.0407 1.00722 6.40637
upperback 9.64762 3.96616 2.58832
thorax -6.26569 2.10094 -2.2247
lowerneck -8.0943 -18.4357 -12.9948
upperneck -21.2502 -20.812 34.4929
head 0.961578 -10.9584 11.3777
rclavicle -2.62396e-014 3.73715e-014
rhumerus 112.501 -55.0847 -127.822
rradius 8.65212
rwrist 65.0736
rhand -21.9225 16.4439
rfingers 7.12502
rthumb 4.4836 -13.4886
lclavicle -2.62396e-014 3.73715e-014
lhumerus -27.9756 18.0586 48.4981
lradius 19.652
lwrist -5.74826
lhand -24.6177 28.3795
lfingers 7.12502
lthumb 1.88083 58.3509
rfemur -30.1723 0.527702 -3.15456
rtibia 31.6448
rfoot 8.93456 -27.6739
rtoes 14.5749
lfemur -50.0306 -3.61327 -10.7452
ltibia 69.3282
lfoot -17.0216 -4.88165
ltoes -13.5874
472
root 8.11924 16.0781 -6.49761 -3.80132 47.5405 -7.87481
lowerback 31.9598 1.12953 6.13876
upperback 9.61734 4.03585 2.64864
thorax -6.28456 2.12966 -2.02704
lowerneck -7.93648 -18.3789 -12.8176
upperneck -20.6473 -20.9044 34.2908
head 1.06846 -10.9874 11.25
rclavicle -1.23246e-014 -2.54444e-014
rhumerus 111.42 -55.2973 -126.739
rradius 8.43039
rwrist 65.6502
rhand -21.3855 15.5244
rfingers 7.12502
rthumb 5.00208 -14.3965
lclavicle -1.23246e-014 -2.54444e-014
lhumerus -29.4229 19.0878 46.5863
lradius 19.385
lwrist -5.52048
lhand -25.2632 29.6866
lfingers 7.12502
lthumb 1.25741 59.6626
rfemur -30.0292 0.397138 -2.59636
rtibia 31.9568
rfoot 9.10184 -27.1918
rtoes 12.2638
lfemur -49.7576 -4.24679 -10.2962
ltibia 69.7296
lfoot -16.8997 -3.91372
ltoes -15.1162
473
root 8.14001 16.12 -6.40068 -3.92637 47.418 -7.95651
lowerback 31.7647 1.34589 5.9224
upperback 9.72843 4.22765 2.70069
thorax -6.07762 2.23046 -1.89998
lowerneck -7.99269 -18.5329 -12.5301
upperneck -20.4328 -21.186 34.1689
head 1.13771 -11.1235 11.0928
rclavicle 2.8625e-014 3.18055e-014
rhumerus 111.08 -55.6502 -126.135
rradius 8.25732
rwrist 66.3535
rhand -20.9901 15.0957
rfingers 7.12502
rthumb 5.38393 -14.8159
lclavicle 2.8625e-014 3.18055e-014
lhumerus -30.3793 20.6724 44.8167
lradius 18.8236
lwrist -6.45717
lhand -26.2644 30.7895
lfingers 7.12502
lthumb 0.290407 60.769
rfemur -29.8588 0.267124 -2.15638
rtibia 32.2107
rfoot 8.61687 -27.054
rtoes 11.713
lfemur -49.6755 -4.8405 -10.0257
ltibia 70.3274
lfoot -16.3858 -2.54375
ltoes -16.6831
474
root 8.15868 16.1626 -6.30113 -4.33844 47.3277 -8.34892
lowerback 31.6994 1.38179 5.88918
upperback 9.84124 4.25667 2.70835
thorax -5.92048 2.2536 -1.87545
lowerneck -8.06443 -18.6876 -12.1837
upperneck -20.1312 -21.4919 34.136
head 1.24677 -11.2727 10.9444
rclavicle -4.21423e-014 5.56597e-015
rhumerus 110.356 -55.8541 -125.638
rradius 8.26167
rwrist 66.9397
rhand -20.8099 15.3119
rfingers 7.12502
rthumb 5.55794 -14.5952
lclavicle -4.21423e-014 5.56597e-015
lhumerus -31.4755 22.5318 42.7884
lradius 18.2709
lwrist -7.77782
lhand -27.0976 31.0421
lfingers 7.12502
lthumb -0.514341 61.0212
rfemur -29.5515 0.0368969 -1.4779
rtibia 32.4301
rfoot 8.09581 -26.6975
rtoes 11.2414
lfemur -49.7551 -5.37761 -9.60308
ltibia 71.1667
lfoot -15.6947 -0.974398
ltoes -18.8284
475
root 8.17766 16.1954 -6.20159 -4.94023 47.1734 -9.12509
lowerback 31.5316 1.28945 6.07138
upperback 9.91562 4.18154 2.73126
thorax -5.7511 2.22669 -1.91702
lowerneck -8.19115 -18.6816 -11.9046
upperneck -19.5811 -21.6219 34.0952
head 1.40684 -11.3086 10.8243
rclavicle 1.145e-013 -2.94201e-014
rhumerus 109.201 -55.8023 -124.951
rradius 8.33309
rwrist 67.2586
rhand -20.7809 15.293
rfingers 7.12502
rthumb 5.58588 -14.6134
lclavicle 1.145e-013 -2.94201e-014
lhumerus -32.876 23.8168 40.7803
lradius 18.0853
lwrist -8.34343
lhand -27.6387 31.3175
lfingers 7.12502
lthumb -1.03696 61.2947
rfemur -29.3273 -0.215636 -0.529513
rtibia 32.624
rfoot 7.49211 -26.215
rtoes 11.4257
lfemur -50.1284 -5.77915 -8.91065
ltibia 72.2418
lfoot -14.8573 0.323441
ltoes -19.1136
476
root 8.20204 16.2225 -6.10227 -4.92741 46.9876 -9.15196
lowerback 31.2684 1.43914 5.91168
upperback 9.95265 4.30073 2.77342
thorax -5.59789 2.28739 -1.80638
lowerneck -8.15517 -18.8069 -12.03
upperneck -19.2071 -21.9004 34.0137
head 1.56542 -11.4163 10.737
rclavicle 4.37326e-014 -2.54444e-014
rhumerus 108.367 -56.0147 -123.958
rradius 8.26752
rwrist 67.4924
rhand -20.908 15.3176
rfingers 7.12502
rthumb 5.46317 -14.592
lclavicle 4.37326e-014 -2.54444e-014
lhumerus -34.0686 24.4701 39.335
lradius 17.9647
lwrist -8.56286
lhand -28.1561 31.9316
lfingers 7.12502
lthumb -1.53664 61.9058
rfemur -29.2147 -0.48604 -0.178984
rtibia 32.8046
rfoot 6.91552 -25.6984
rtoes 11.8494
lfemur -50.6109 -6.3007 -8.79702
ltibia 73.432
lfoot -13.86 1.58894
ltoes -16.9682
477
root 8.22508 16.2521 -6.00474 -4.77172 46.7279 -8.79385
lowerback 31.25 1.64033 5.50199
upperback 9.93625 4.42396 2.73232
thorax -5.63109 2.34037 -1.66121
lowerneck -7.74408 -18.9099 -12.1217
upperneck -19.1236 -22.1064 33.9726
head 1.56937 -11.5444 10.7245
rclavicle 6.44062e-014 -1.66979e-014
rhumerus 107.328 -56.4009 -122.88
rradius 8.22641
rwrist 67.5763
rhand -20.6122 16.4495
rfingers 7.12502
rthumb 5.74878 -13.4525
lclavicle 6.44062e-014 -1.66979e-014
lhumerus -35.4039 25.0353 37.8246
lradius 17.8526
lwrist -9.00978
lhand -28.4549 32.4053
lfingers 7.12502
lthumb -1.82528 62.3772
rfemur -29.0243 -0.585162 -0.146727
rtibia 32.9513
rfoot 6.29668 -25.2978
rtoes 12.6885
lfemur -50.9539 -6.79399 -9.04943
ltibia 74.6195
lfoot -12.7256 3.26692
ltoes -15.6848
